/usr/bin/start-video-rec.sh: line 93: kill: (505) - No such process
ffmpeg version 2.8.17-0ubuntu0.1 Copyright (c) 2000-2020 the FFmpeg developers
  built with gcc 5.4.0 (Ubuntu 5.4.0-6ubuntu1~16.04.12) 20160609
  configuration: --prefix=/usr --extra-version=0ubuntu0.1 --build-suffix=-ffmpeg --toolchain=hardened --libdir=/usr/lib/x86_64-linux-gnu --incdir=/usr/include/x86_64-linux-gnu --cc=cc --cxx=g++ --enable-gpl --enable-shared --disable-stripping --disable-decoder=libopenjpeg --disable-decoder=libschroedinger --enable-avresample --enable-avisynth --enable-gnutls --enable-ladspa --enable-libass --enable-libbluray --enable-libbs2b --enable-libcaca --enable-libcdio --enable-libflite --enable-libfontconfig --enable-libfreetype --enable-libfribidi --enable-libgme --enable-libgsm --enable-libmodplug --enable-libmp3lame --enable-libopenjpeg --enable-libopus --enable-libpulse --enable-librtmp --enable-libschroedinger --enable-libshine --enable-libsnappy --enable-libsoxr --enable-libspeex --enable-libssh --enable-libtheora --enable-libtwolame --enable-libvorbis --enable-libvpx --enable-libwavpack --enable-libwebp --enable-libx265 --enable-libxvid --enable-libzvbi --enable-openal --enable-opengl --enable-x11grab --enable-libdc1394 --enable-libiec61883 --enable-libzmq --enable-frei0r --enable-libx264 --enable-libopencv
  libavutil      54. 31.100 / 54. 31.100
  libavcodec     56. 60.100 / 56. 60.100
  libavformat    56. 40.101 / 56. 40.101
  libavdevice    56.  4.100 / 56.  4.100
  libavfilter     5. 40.101 /  5. 40.101
  libavresample   2.  1.  0 /  2.  1.  0
  libswscale      3.  1.101 /  3.  1.101
  libswresample   1.  2.101 /  1.  2.101
  libpostproc    53.  3.100 / 53.  3.100
Input #0, matroska,webm, from '/home/seluser/videos/vid_chrome_or_firefox_40000.mkv':
  Metadata:
    ENCODER         : Lavf56.40.101
  Duration: 00:01:58.00, start: 0.000000, bitrate: 33 kb/s
    Stream #0:0: Video: h264 (Constrained Baseline), yuv420p, 1366x768, SAR 1:1 DAR 683:384, 10 fps, 10 tbr, 1k tbn, 20 tbc (default)
    Metadata:
      ENCODER         : Lavc56.60.100 libx264
      DURATION        : 00:01:58.000000000
[libx264 @ 0xf86660] using SAR=1/1
[libx264 @ 0xf86660] using cpu capabilities: MMX2 SSE2Fast SSSE3 SSE4.2 AVX FMA3 AVX2 LZCNT BMI2
[libx264 @ 0xf86660] profile Constrained Baseline, level 3.2
[libx264 @ 0xf86660] 264 - core 148 r2643 5c65704 - H.264/MPEG-4 AVC codec - Copyleft 2003-2015 - http://www.videolan.org/x264.html - options: cabac=0 ref=1 deblock=0:0:0 analyse=0:0 me=dia subme=0 psy=1 psy_rd=1.00:0.00 mixed_ref=0 me_range=16 chroma_me=1 trellis=0 8x8dct=0 cqm=0 deadzone=21,11 fast_pskip=1 chroma_qp_offset=0 threads=3 lookahead_threads=1 sliced_threads=0 nr=0 decimate=1 interlaced=0 bluray_compat=0 constrained_intra=0 bframes=0 weightp=0 keyint=250 keyint_min=10 scenecut=0 intra_refresh=0 rc=crf mbtree=0 crf=23.0 qcomp=0.60 qpmin=0 qpmax=69 qpstep=4 ip_ratio=1.40 aq=0
Output #0, mp4, to '/home/seluser/videos/vid_chrome_or_firefox_40000.mp4':
  Metadata:
    encoder         : Lavf56.40.101
    Stream #0:0: Video: h264 (libx264) ([33][0][0][0] / 0x0021), yuv420p, 1366x768 [SAR 1:1 DAR 683:384], q=-1--1, 10 fps, 10240 tbn, 10 tbc (default)
    Metadata:
      DURATION        : 00:01:58.000000000
      encoder         : Lavc56.60.100 libx264
Stream mapping:
  Stream #0:0 -> #0:0 (h264 (native) -> h264 (libx264))
Press [q] to stop, [?] for help
frame=   45 fps=0.0 q=12.0 size=      88kB time=00:00:04.10 bitrate= 175.7kbits/s    
frame=   91 fps= 85 q=9.0 size=     130kB time=00:00:08.70 bitrate= 122.8kbits/s    
frame=  143 fps= 88 q=9.0 size=     132kB time=00:00:13.90 bitrate=  78.1kbits/s    
frame=  162 fps= 76 q=9.0 size=     133kB time=00:00:15.80 bitrate=  69.0kbits/s    
frame=  185 fps= 70 q=9.0 size=     134kB time=00:00:18.10 bitrate=  60.6kbits/s    
frame=  200 fps= 63 q=9.0 size=     134kB time=00:00:19.60 bitrate=  56.2kbits/s    
frame=  217 fps= 59 q=9.0 size=     135kB time=00:00:21.30 bitrate=  51.9kbits/s    
frame=  264 fps= 63 q=9.0 size=     210kB time=00:00:26.00 bitrate=  66.0kbits/s    
frame=  306 fps= 66 q=9.0 size=     212kB time=00:00:30.20 bitrate=  57.4kbits/s    
frame=  344 fps= 66 q=9.0 size=     213kB time=00:00:34.00 bitrate=  51.4kbits/s    
frame=  373 fps= 65 q=9.0 size=     215kB time=00:00:36.90 bitrate=  47.7kbits/s    
frame=  419 fps= 67 q=9.0 size=     217kB time=00:00:41.50 bitrate=  42.8kbits/s    
frame=  500 fps= 74 q=9.0 size=     221kB time=00:00:49.60 bitrate=  36.5kbits/s    
frame=  576 fps= 80 q=9.0 size=     295kB time=00:00:57.20 bitrate=  42.2kbits/s    
frame=  610 fps= 78 q=9.0 size=     296kB time=00:01:00.60 bitrate=  40.1kbits/s    
frame=  646 fps= 78 q=9.0 size=     298kB time=00:01:04.20 bitrate=  38.0kbits/s    
frame=  673 fps= 76 q=9.0 size=     299kB time=00:01:06.90 bitrate=  36.7kbits/s    
frame=  724 fps= 78 q=9.0 size=     302kB time=00:01:12.00 bitrate=  34.3kbits/s    
frame=  752 fps= 76 q=9.0 size=     303kB time=00:01:14.80 bitrate=  33.2kbits/s    
frame=  783 fps= 76 q=9.0 size=     375kB time=00:01:17.90 bitrate=  39.4kbits/s    
frame=  820 fps= 75 q=9.0 size=     377kB time=00:01:21.60 bitrate=  37.8kbits/s    
frame=  849 fps= 75 q=9.0 size=     378kB time=00:01:24.50 bitrate=  36.7kbits/s    
frame=  875 fps= 74 q=9.0 size=     379kB time=00:01:27.10 bitrate=  35.7kbits/s    
frame=  916 fps= 74 q=9.0 size=     381kB time=00:01:31.20 bitrate=  34.2kbits/s    
frame=  943 fps= 73 q=9.0 size=     382kB time=00:01:33.90 bitrate=  33.4kbits/s    
frame=  968 fps= 72 q=9.0 size=     383kB time=00:01:36.40 bitrate=  32.6kbits/s    
frame= 1001 fps= 72 q=9.0 size=     385kB time=00:01:39.70 bitrate=  31.6kbits/s    
frame= 1024 fps= 71 q=9.0 size=     456kB time=00:01:42.00 bitrate=  36.6kbits/s    
frame= 1051 fps= 70 q=9.0 size=     458kB time=00:01:44.70 bitrate=  35.8kbits/s    
frame= 1083 fps= 70 q=9.0 size=     459kB time=00:01:47.90 bitrate=  34.9kbits/s    
frame= 1117 fps= 70 q=9.0 size=     461kB time=00:01:51.30 bitrate=  33.9kbits/s    
frame= 1148 fps= 70 q=9.0 size=     462kB time=00:01:54.40 bitrate=  33.1kbits/s    
frame= 1180 fps= 70 q=-1.0 Lsize=     474kB time=00:01:58.00 bitrate=  32.9kbits/s    
video:468kB audio:0kB subtitle:0kB other streams:0kB global headers:0kB muxing overhead: 1.157763%
[libx264 @ 0xf86660] frame I:5     Avg QP: 8.80  size: 60675
[libx264 @ 0xf86660] frame P:1175  Avg QP: 9.17  size:   149
[libx264 @ 0xf86660] mb I  I16..4: 100.0%  0.0%  0.0%
[libx264 @ 0xf86660] mb P  I16..4:  0.4%  0.0%  0.0%  P16..4:  0.1%  0.0%  0.0%  0.0%  0.0%    skip:99.5%
[libx264 @ 0xf86660] coded y,uvDC,uvAC intra: 7.3% 4.5% 4.2% inter: 0.0% 0.0% 0.0%
[libx264 @ 0xf86660] i16 v,h,dc,p: 83% 16%  1%  0%
[libx264 @ 0xf86660] i8c dc,h,v,p: 84% 13%  3%  0%
[libx264 @ 0xf86660] kb/s:32.48
